<svg style="height: 66px; width: 66px;" xmlns="http://www.w3.org/2000/svg" viewBox="0 0 512 512"><rect fill="#c8d180" fill-opacity="1" height="512" width="512" rx="60" ry="60"></rect><g class="" style="touch-action: none;" transform="translate(0,0)"><path d="M130.72 61C106 61.11 106 62.875 106 91H76l-15 30v60l15 30h30c0 30 0 30 30 30h120c30 0 30 0 30-30h15l15-30h180v-60H316l-15-30h-15c0-30 0-30-30-30H136c-1.875 0-3.633-.007-5.28 0zM166 271a15 15 0 0 0-15 15v45a15 15 0 0 0 15 15h60a15 15 0 0 0 15-15v-45a15 15 0 0 0-15-15h-60zm-15 105c-30 0-45 30-45 30-15 0-30 0-30 15l-60 15v15h360v-15l-60-15c0-15-15-15-30-15 0 0-15-30-45-30h-90z" fill="#000000" fill-opacity="1" transform="translate(51.2, 51.2) scale(0.8, 0.8) rotate(0, 256, 256)"></path></g></svg>