<svg style="height: 66px; width: 66px;" xmlns="http://www.w3.org/2000/svg" viewBox="0 0 512 512"><rect fill="#7fd1ae" fill-opacity="1" height="512" width="512" rx="60" ry="60"></rect><g class="" style="touch-action: none;" transform="translate(0,0)"><path d="M18 112v39h38v-39zm102 0v39h48v-39zm112 0v39h48v-39zm112 0v39h48v-39zm112 0v39h38v-39zM18 169v30h476v-30zm0 48v78h38v-78zm102 0v78h48v-78zm112 0v78h48v-78zm112 0v78h48v-78zm112 0v78h38v-78zM18 313v30h476v-30zm0 48v39h38v-39zm102 0v39h48v-39zm112 0v39h48v-39zm112 0v39h48v-39zm112 0v39h38v-39z" fill="#000000" fill-opacity="1"></path></g></svg>